%TF.GenerationSoftware,KiCad,Pcbnew,no-vcs-found-d00fc99~60~ubuntu16.04.1*%
%TF.CreationDate,2017-10-03T23:38:07-03:00*%
%TF.ProjectId,efm32-board,65666D33322D626F6172642E6B696361,rev?*%
%TF.SameCoordinates,Original*%
%TF.FileFunction,Legend,Bot*%
%TF.FilePolarity,Positive*%
%FSLAX46Y46*%
G04 Gerber Fmt 4.6, Leading zero omitted, Abs format (unit mm)*
G04 Created by KiCad (PCBNEW no-vcs-found-d00fc99~60~ubuntu16.04.1) date Tue Oct  3 23:38:07 2017*
%MOMM*%
%LPD*%
G01*
G04 APERTURE LIST*
%ADD10C,0.200000*%
%ADD11C,0.002540*%
%ADD12C,0.120000*%
%ADD13C,0.150000*%
G04 APERTURE END LIST*
D10*
X124885619Y-120369285D02*
X124933238Y-120464523D01*
X125028476Y-120512142D01*
X125885619Y-120512142D01*
X124885619Y-119988333D02*
X125552285Y-119988333D01*
X125885619Y-119988333D02*
X125838000Y-120035952D01*
X125790380Y-119988333D01*
X125838000Y-119940714D01*
X125885619Y-119988333D01*
X125790380Y-119988333D01*
X124933238Y-119083571D02*
X124885619Y-119178809D01*
X124885619Y-119369285D01*
X124933238Y-119464523D01*
X124980857Y-119512142D01*
X125076095Y-119559761D01*
X125361809Y-119559761D01*
X125457047Y-119512142D01*
X125504666Y-119464523D01*
X125552285Y-119369285D01*
X125552285Y-119178809D01*
X125504666Y-119083571D01*
X124933238Y-118274047D02*
X124885619Y-118369285D01*
X124885619Y-118559761D01*
X124933238Y-118655000D01*
X125028476Y-118702619D01*
X125409428Y-118702619D01*
X125504666Y-118655000D01*
X125552285Y-118559761D01*
X125552285Y-118369285D01*
X125504666Y-118274047D01*
X125409428Y-118226428D01*
X125314190Y-118226428D01*
X125218952Y-118702619D01*
X125552285Y-117797857D02*
X124885619Y-117797857D01*
X125457047Y-117797857D02*
X125504666Y-117750238D01*
X125552285Y-117655000D01*
X125552285Y-117512142D01*
X125504666Y-117416904D01*
X125409428Y-117369285D01*
X124885619Y-117369285D01*
X124933238Y-116464523D02*
X124885619Y-116559761D01*
X124885619Y-116750238D01*
X124933238Y-116845476D01*
X124980857Y-116893095D01*
X125076095Y-116940714D01*
X125361809Y-116940714D01*
X125457047Y-116893095D01*
X125504666Y-116845476D01*
X125552285Y-116750238D01*
X125552285Y-116559761D01*
X125504666Y-116464523D01*
X124933238Y-115655000D02*
X124885619Y-115750238D01*
X124885619Y-115940714D01*
X124933238Y-116035952D01*
X125028476Y-116083571D01*
X125409428Y-116083571D01*
X125504666Y-116035952D01*
X125552285Y-115940714D01*
X125552285Y-115750238D01*
X125504666Y-115655000D01*
X125409428Y-115607380D01*
X125314190Y-115607380D01*
X125218952Y-116083571D01*
X124885619Y-114750238D02*
X125885619Y-114750238D01*
X124933238Y-114750238D02*
X124885619Y-114845476D01*
X124885619Y-115035952D01*
X124933238Y-115131190D01*
X124980857Y-115178809D01*
X125076095Y-115226428D01*
X125361809Y-115226428D01*
X125457047Y-115178809D01*
X125504666Y-115131190D01*
X125552285Y-115035952D01*
X125552285Y-114845476D01*
X125504666Y-114750238D01*
X125552285Y-113083571D02*
X124885619Y-113083571D01*
X125552285Y-113512142D02*
X125028476Y-113512142D01*
X124933238Y-113464523D01*
X124885619Y-113369285D01*
X124885619Y-113226428D01*
X124933238Y-113131190D01*
X124980857Y-113083571D01*
X125552285Y-112607380D02*
X124885619Y-112607380D01*
X125457047Y-112607380D02*
X125504666Y-112559761D01*
X125552285Y-112464523D01*
X125552285Y-112321666D01*
X125504666Y-112226428D01*
X125409428Y-112178809D01*
X124885619Y-112178809D01*
X124885619Y-111274047D02*
X125885619Y-111274047D01*
X124933238Y-111274047D02*
X124885619Y-111369285D01*
X124885619Y-111559761D01*
X124933238Y-111655000D01*
X124980857Y-111702619D01*
X125076095Y-111750238D01*
X125361809Y-111750238D01*
X125457047Y-111702619D01*
X125504666Y-111655000D01*
X125552285Y-111559761D01*
X125552285Y-111369285D01*
X125504666Y-111274047D01*
X124933238Y-110416904D02*
X124885619Y-110512142D01*
X124885619Y-110702619D01*
X124933238Y-110797857D01*
X125028476Y-110845476D01*
X125409428Y-110845476D01*
X125504666Y-110797857D01*
X125552285Y-110702619D01*
X125552285Y-110512142D01*
X125504666Y-110416904D01*
X125409428Y-110369285D01*
X125314190Y-110369285D01*
X125218952Y-110845476D01*
X124885619Y-109940714D02*
X125552285Y-109940714D01*
X125361809Y-109940714D02*
X125457047Y-109893095D01*
X125504666Y-109845476D01*
X125552285Y-109750238D01*
X125552285Y-109655000D01*
X123709428Y-120369285D02*
X123661809Y-120226428D01*
X123614190Y-120178809D01*
X123518952Y-120131190D01*
X123376095Y-120131190D01*
X123280857Y-120178809D01*
X123233238Y-120226428D01*
X123185619Y-120321666D01*
X123185619Y-120702619D01*
X124185619Y-120702619D01*
X124185619Y-120369285D01*
X124138000Y-120274047D01*
X124090380Y-120226428D01*
X123995142Y-120178809D01*
X123899904Y-120178809D01*
X123804666Y-120226428D01*
X123757047Y-120274047D01*
X123709428Y-120369285D01*
X123709428Y-120702619D01*
X123233238Y-119750238D02*
X123185619Y-119607380D01*
X123185619Y-119369285D01*
X123233238Y-119274047D01*
X123280857Y-119226428D01*
X123376095Y-119178809D01*
X123471333Y-119178809D01*
X123566571Y-119226428D01*
X123614190Y-119274047D01*
X123661809Y-119369285D01*
X123709428Y-119559761D01*
X123757047Y-119655000D01*
X123804666Y-119702619D01*
X123899904Y-119750238D01*
X123995142Y-119750238D01*
X124090380Y-119702619D01*
X124138000Y-119655000D01*
X124185619Y-119559761D01*
X124185619Y-119321666D01*
X124138000Y-119178809D01*
X123185619Y-118750238D02*
X124185619Y-118750238D01*
X124185619Y-118512142D01*
X124138000Y-118369285D01*
X124042761Y-118274047D01*
X123947523Y-118226428D01*
X123757047Y-118178809D01*
X123614190Y-118178809D01*
X123423714Y-118226428D01*
X123328476Y-118274047D01*
X123233238Y-118369285D01*
X123185619Y-118512142D01*
X123185619Y-118750238D01*
X123566571Y-117750238D02*
X123566571Y-116988333D01*
X124185619Y-116607380D02*
X124185619Y-115988333D01*
X123804666Y-116321666D01*
X123804666Y-116178809D01*
X123757047Y-116083571D01*
X123709428Y-116035952D01*
X123614190Y-115988333D01*
X123376095Y-115988333D01*
X123280857Y-116035952D01*
X123233238Y-116083571D01*
X123185619Y-116178809D01*
X123185619Y-116464523D01*
X123233238Y-116559761D01*
X123280857Y-116607380D01*
X123233238Y-114369285D02*
X123185619Y-114464523D01*
X123185619Y-114655000D01*
X123233238Y-114750238D01*
X123280857Y-114797857D01*
X123376095Y-114845476D01*
X123661809Y-114845476D01*
X123757047Y-114797857D01*
X123804666Y-114750238D01*
X123852285Y-114655000D01*
X123852285Y-114464523D01*
X123804666Y-114369285D01*
X123185619Y-113797857D02*
X123233238Y-113893095D01*
X123328476Y-113940714D01*
X124185619Y-113940714D01*
X123185619Y-112988333D02*
X123709428Y-112988333D01*
X123804666Y-113035952D01*
X123852285Y-113131190D01*
X123852285Y-113321666D01*
X123804666Y-113416904D01*
X123233238Y-112988333D02*
X123185619Y-113083571D01*
X123185619Y-113321666D01*
X123233238Y-113416904D01*
X123328476Y-113464523D01*
X123423714Y-113464523D01*
X123518952Y-113416904D01*
X123566571Y-113321666D01*
X123566571Y-113083571D01*
X123614190Y-112988333D01*
X123852285Y-112083571D02*
X123185619Y-112083571D01*
X123852285Y-112512142D02*
X123328476Y-112512142D01*
X123233238Y-112464523D01*
X123185619Y-112369285D01*
X123185619Y-112226428D01*
X123233238Y-112131190D01*
X123280857Y-112083571D01*
X123233238Y-111655000D02*
X123185619Y-111559761D01*
X123185619Y-111369285D01*
X123233238Y-111274047D01*
X123328476Y-111226428D01*
X123376095Y-111226428D01*
X123471333Y-111274047D01*
X123518952Y-111369285D01*
X123518952Y-111512142D01*
X123566571Y-111607380D01*
X123661809Y-111655000D01*
X123709428Y-111655000D01*
X123804666Y-111607380D01*
X123852285Y-111512142D01*
X123852285Y-111369285D01*
X123804666Y-111274047D01*
X123233238Y-110416904D02*
X123185619Y-110512142D01*
X123185619Y-110702619D01*
X123233238Y-110797857D01*
X123328476Y-110845476D01*
X123709428Y-110845476D01*
X123804666Y-110797857D01*
X123852285Y-110702619D01*
X123852285Y-110512142D01*
X123804666Y-110416904D01*
X123709428Y-110369285D01*
X123614190Y-110369285D01*
X123518952Y-110845476D01*
X123233238Y-109988333D02*
X123185619Y-109893095D01*
X123185619Y-109702619D01*
X123233238Y-109607380D01*
X123328476Y-109559761D01*
X123376095Y-109559761D01*
X123471333Y-109607380D01*
X123518952Y-109702619D01*
X123518952Y-109845476D01*
X123566571Y-109940714D01*
X123661809Y-109988333D01*
X123709428Y-109988333D01*
X123804666Y-109940714D01*
X123852285Y-109845476D01*
X123852285Y-109702619D01*
X123804666Y-109607380D01*
X121485619Y-118416904D02*
X121485619Y-118464523D01*
X121533238Y-118559761D01*
X121676095Y-118702619D01*
X121961809Y-118940714D01*
X122104666Y-119035952D01*
X122247523Y-119083571D01*
X122342761Y-119083571D01*
X122438000Y-119035952D01*
X122485619Y-118940714D01*
X122485619Y-118893095D01*
X122438000Y-118797857D01*
X122342761Y-118750238D01*
X122295142Y-118750238D01*
X122199904Y-118797857D01*
X122152285Y-118845476D01*
X121961809Y-119131190D01*
X121914190Y-119178809D01*
X121818952Y-119226428D01*
X121676095Y-119226428D01*
X121580857Y-119178809D01*
X121533238Y-119131190D01*
X121485619Y-119035952D01*
X121485619Y-118893095D01*
X121533238Y-118797857D01*
X121580857Y-118750238D01*
X121771333Y-118607380D01*
X121914190Y-118559761D01*
X122009428Y-118559761D01*
X121580857Y-116655000D02*
X121533238Y-116702619D01*
X121485619Y-116845476D01*
X121485619Y-116940714D01*
X121533238Y-117083571D01*
X121628476Y-117178809D01*
X121723714Y-117226428D01*
X121914190Y-117274047D01*
X122057047Y-117274047D01*
X122247523Y-117226428D01*
X122342761Y-117178809D01*
X122438000Y-117083571D01*
X122485619Y-116940714D01*
X122485619Y-116845476D01*
X122438000Y-116702619D01*
X122390380Y-116655000D01*
X121485619Y-116226428D02*
X122485619Y-116226428D01*
X121771333Y-115797857D02*
X121771333Y-115321666D01*
X121485619Y-115893095D02*
X122485619Y-115559761D01*
X121485619Y-115226428D01*
X121771333Y-114940714D02*
X121771333Y-114464523D01*
X121485619Y-115035952D02*
X122485619Y-114702619D01*
X121485619Y-114369285D01*
X121866571Y-114035952D02*
X121866571Y-113274047D01*
X121485619Y-112797857D02*
X122485619Y-112797857D01*
X122009428Y-112797857D02*
X122009428Y-112226428D01*
X121485619Y-112226428D02*
X122485619Y-112226428D01*
X122485619Y-111845476D02*
X121485619Y-111607380D01*
X122199904Y-111416904D01*
X121485619Y-111226428D01*
X122485619Y-110988333D01*
X131763238Y-120223095D02*
X131715619Y-120318333D01*
X131715619Y-120508809D01*
X131763238Y-120604047D01*
X131810857Y-120651666D01*
X131906095Y-120699285D01*
X132191809Y-120699285D01*
X132287047Y-120651666D01*
X132334666Y-120604047D01*
X132382285Y-120508809D01*
X132382285Y-120318333D01*
X132334666Y-120223095D01*
X131715619Y-119651666D02*
X131763238Y-119746904D01*
X131810857Y-119794523D01*
X131906095Y-119842142D01*
X132191809Y-119842142D01*
X132287047Y-119794523D01*
X132334666Y-119746904D01*
X132382285Y-119651666D01*
X132382285Y-119508809D01*
X132334666Y-119413571D01*
X132287047Y-119365952D01*
X132191809Y-119318333D01*
X131906095Y-119318333D01*
X131810857Y-119365952D01*
X131763238Y-119413571D01*
X131715619Y-119508809D01*
X131715619Y-119651666D01*
X132382285Y-118889761D02*
X131382285Y-118889761D01*
X132334666Y-118889761D02*
X132382285Y-118794523D01*
X132382285Y-118604047D01*
X132334666Y-118508809D01*
X132287047Y-118461190D01*
X132191809Y-118413571D01*
X131906095Y-118413571D01*
X131810857Y-118461190D01*
X131763238Y-118508809D01*
X131715619Y-118604047D01*
X131715619Y-118794523D01*
X131763238Y-118889761D01*
X132382285Y-118080238D02*
X131715619Y-117842142D01*
X132382285Y-117604047D02*
X131715619Y-117842142D01*
X131477523Y-117937380D01*
X131429904Y-117985000D01*
X131382285Y-118080238D01*
X131715619Y-117223095D02*
X132382285Y-117223095D01*
X132191809Y-117223095D02*
X132287047Y-117175476D01*
X132334666Y-117127857D01*
X132382285Y-117032619D01*
X132382285Y-116937380D01*
X131715619Y-116604047D02*
X132382285Y-116604047D01*
X132715619Y-116604047D02*
X132668000Y-116651666D01*
X132620380Y-116604047D01*
X132668000Y-116556428D01*
X132715619Y-116604047D01*
X132620380Y-116604047D01*
X132382285Y-115699285D02*
X131572761Y-115699285D01*
X131477523Y-115746904D01*
X131429904Y-115794523D01*
X131382285Y-115889761D01*
X131382285Y-116032619D01*
X131429904Y-116127857D01*
X131763238Y-115699285D02*
X131715619Y-115794523D01*
X131715619Y-115985000D01*
X131763238Y-116080238D01*
X131810857Y-116127857D01*
X131906095Y-116175476D01*
X132191809Y-116175476D01*
X132287047Y-116127857D01*
X132334666Y-116080238D01*
X132382285Y-115985000D01*
X132382285Y-115794523D01*
X132334666Y-115699285D01*
X131715619Y-115223095D02*
X132715619Y-115223095D01*
X131715619Y-114794523D02*
X132239428Y-114794523D01*
X132334666Y-114842142D01*
X132382285Y-114937380D01*
X132382285Y-115080238D01*
X132334666Y-115175476D01*
X132287047Y-115223095D01*
X132382285Y-114461190D02*
X132382285Y-114080238D01*
X132715619Y-114318333D02*
X131858476Y-114318333D01*
X131763238Y-114270714D01*
X131715619Y-114175476D01*
X131715619Y-114080238D01*
X132477523Y-112175476D02*
X132525142Y-112270714D01*
X132525142Y-112461190D01*
X132477523Y-112556428D01*
X132382285Y-112651666D01*
X132287047Y-112699285D01*
X132096571Y-112699285D01*
X132001333Y-112651666D01*
X131906095Y-112556428D01*
X131858476Y-112461190D01*
X131858476Y-112270714D01*
X131906095Y-112175476D01*
X132858476Y-112365952D02*
X132810857Y-112604047D01*
X132668000Y-112842142D01*
X132429904Y-112985000D01*
X132191809Y-113032619D01*
X131953714Y-112985000D01*
X131715619Y-112842142D01*
X131572761Y-112604047D01*
X131525142Y-112365952D01*
X131572761Y-112127857D01*
X131715619Y-111889761D01*
X131953714Y-111746904D01*
X132191809Y-111699285D01*
X132429904Y-111746904D01*
X132668000Y-111889761D01*
X132810857Y-112127857D01*
X132858476Y-112365952D01*
X131715619Y-110508809D02*
X132715619Y-110508809D01*
X132334666Y-110508809D02*
X132382285Y-110413571D01*
X132382285Y-110223095D01*
X132334666Y-110127857D01*
X132287047Y-110080238D01*
X132191809Y-110032619D01*
X131906095Y-110032619D01*
X131810857Y-110080238D01*
X131763238Y-110127857D01*
X131715619Y-110223095D01*
X131715619Y-110413571D01*
X131763238Y-110508809D01*
X132382285Y-109699285D02*
X131715619Y-109461190D01*
X132382285Y-109223095D02*
X131715619Y-109461190D01*
X131477523Y-109556428D01*
X131429904Y-109604047D01*
X131382285Y-109699285D01*
X130015619Y-120794523D02*
X131015619Y-120794523D01*
X130301333Y-120461190D01*
X131015619Y-120127857D01*
X130015619Y-120127857D01*
X130015619Y-119223095D02*
X130539428Y-119223095D01*
X130634666Y-119270714D01*
X130682285Y-119365952D01*
X130682285Y-119556428D01*
X130634666Y-119651666D01*
X130063238Y-119223095D02*
X130015619Y-119318333D01*
X130015619Y-119556428D01*
X130063238Y-119651666D01*
X130158476Y-119699285D01*
X130253714Y-119699285D01*
X130348952Y-119651666D01*
X130396571Y-119556428D01*
X130396571Y-119318333D01*
X130444190Y-119223095D01*
X130015619Y-118746904D02*
X130682285Y-118746904D01*
X130491809Y-118746904D02*
X130587047Y-118699285D01*
X130634666Y-118651666D01*
X130682285Y-118556428D01*
X130682285Y-118461190D01*
X130682285Y-118270714D02*
X130682285Y-117889761D01*
X131015619Y-118127857D02*
X130158476Y-118127857D01*
X130063238Y-118080238D01*
X130015619Y-117985000D01*
X130015619Y-117889761D01*
X130015619Y-117556428D02*
X130682285Y-117556428D01*
X131015619Y-117556428D02*
X130968000Y-117604047D01*
X130920380Y-117556428D01*
X130968000Y-117508809D01*
X131015619Y-117556428D01*
X130920380Y-117556428D01*
X130682285Y-117080238D02*
X130015619Y-117080238D01*
X130587047Y-117080238D02*
X130634666Y-117032619D01*
X130682285Y-116937380D01*
X130682285Y-116794523D01*
X130634666Y-116699285D01*
X130539428Y-116651666D01*
X130015619Y-116651666D01*
X130015619Y-114842142D02*
X130491809Y-115175476D01*
X130015619Y-115413571D02*
X131015619Y-115413571D01*
X131015619Y-115032619D01*
X130968000Y-114937380D01*
X130920380Y-114889761D01*
X130825142Y-114842142D01*
X130682285Y-114842142D01*
X130587047Y-114889761D01*
X130539428Y-114937380D01*
X130491809Y-115032619D01*
X130491809Y-115413571D01*
X130015619Y-114413571D02*
X130682285Y-114413571D01*
X131015619Y-114413571D02*
X130968000Y-114461190D01*
X130920380Y-114413571D01*
X130968000Y-114365952D01*
X131015619Y-114413571D01*
X130920380Y-114413571D01*
X130015619Y-113937380D02*
X131015619Y-113937380D01*
X130634666Y-113937380D02*
X130682285Y-113842142D01*
X130682285Y-113651666D01*
X130634666Y-113556428D01*
X130587047Y-113508809D01*
X130491809Y-113461190D01*
X130206095Y-113461190D01*
X130110857Y-113508809D01*
X130063238Y-113556428D01*
X130015619Y-113651666D01*
X130015619Y-113842142D01*
X130063238Y-113937380D01*
X130063238Y-112651666D02*
X130015619Y-112746904D01*
X130015619Y-112937380D01*
X130063238Y-113032619D01*
X130158476Y-113080238D01*
X130539428Y-113080238D01*
X130634666Y-113032619D01*
X130682285Y-112937380D01*
X130682285Y-112746904D01*
X130634666Y-112651666D01*
X130539428Y-112604047D01*
X130444190Y-112604047D01*
X130348952Y-113080238D01*
X130015619Y-112032619D02*
X130063238Y-112127857D01*
X130158476Y-112175476D01*
X131015619Y-112175476D01*
X130015619Y-111508809D02*
X130063238Y-111604047D01*
X130110857Y-111651666D01*
X130206095Y-111699285D01*
X130491809Y-111699285D01*
X130587047Y-111651666D01*
X130634666Y-111604047D01*
X130682285Y-111508809D01*
X130682285Y-111365952D01*
X130634666Y-111270714D01*
X130587047Y-111223095D01*
X130491809Y-111175476D01*
X130206095Y-111175476D01*
X130110857Y-111223095D01*
X130063238Y-111270714D01*
X130015619Y-111365952D01*
X130015619Y-111508809D01*
X130682285Y-110889761D02*
X130682285Y-110508809D01*
X131015619Y-110746904D02*
X130158476Y-110746904D01*
X130063238Y-110699285D01*
X130015619Y-110604047D01*
X130015619Y-110508809D01*
X130682285Y-110318333D02*
X130682285Y-109937380D01*
X131015619Y-110175476D02*
X130158476Y-110175476D01*
X130063238Y-110127857D01*
X130015619Y-110032619D01*
X130015619Y-109937380D01*
X130015619Y-109175476D02*
X130539428Y-109175476D01*
X130634666Y-109223095D01*
X130682285Y-109318333D01*
X130682285Y-109508809D01*
X130634666Y-109604047D01*
X130063238Y-109175476D02*
X130015619Y-109270714D01*
X130015619Y-109508809D01*
X130063238Y-109604047D01*
X130158476Y-109651666D01*
X130253714Y-109651666D01*
X130348952Y-109604047D01*
X130396571Y-109508809D01*
X130396571Y-109270714D01*
X130444190Y-109175476D01*
D11*
%TO.C,G102*%
G36*
X123203820Y-71850820D02*
X123203820Y-76085000D01*
X123203820Y-80316640D01*
X127438000Y-80316640D01*
X131669640Y-80316640D01*
X131669640Y-76085000D01*
X131669640Y-71850820D01*
X127872340Y-71850820D01*
X124072500Y-71850820D01*
X124151240Y-72211500D01*
X124224900Y-72612820D01*
X124301100Y-73138600D01*
X124372220Y-73712640D01*
X125063100Y-73712640D01*
X125192640Y-73743120D01*
X125433940Y-73821860D01*
X125743820Y-73936160D01*
X126076560Y-74063160D01*
X126391520Y-74192700D01*
X126485500Y-74235880D01*
X126706480Y-74360340D01*
X126830940Y-74487340D01*
X126843640Y-74530520D01*
X126797920Y-74621960D01*
X126696320Y-74604180D01*
X126561700Y-74553380D01*
X126312780Y-74459400D01*
X126000360Y-74345100D01*
X125672700Y-74223180D01*
X125370440Y-74113960D01*
X125146920Y-74032680D01*
X125088500Y-74009820D01*
X125004680Y-73923460D01*
X124986900Y-73796460D01*
X125042780Y-73717720D01*
X125063100Y-73712640D01*
X124372220Y-73712640D01*
X124374760Y-73740580D01*
X124420480Y-74157140D01*
X125017380Y-74157140D01*
X125098660Y-74162220D01*
X125256140Y-74207940D01*
X125512680Y-74301920D01*
X125896220Y-74446700D01*
X126041000Y-74502580D01*
X126419460Y-74654980D01*
X126673460Y-74784520D01*
X126800460Y-74898820D01*
X126795380Y-75013120D01*
X126648060Y-75137580D01*
X126358500Y-75284900D01*
X125916540Y-75467780D01*
X125510140Y-75622720D01*
X125230740Y-75726860D01*
X125070720Y-75770040D01*
X124999600Y-75754800D01*
X124981820Y-75688760D01*
X124981820Y-75668440D01*
X125025000Y-75574460D01*
X125172320Y-75470320D01*
X125441560Y-75345860D01*
X125718420Y-75236640D01*
X126457560Y-74957240D01*
X125995280Y-74792140D01*
X125555860Y-74627040D01*
X125256140Y-74497500D01*
X125075800Y-74393360D01*
X124994520Y-74301920D01*
X124981820Y-74251120D01*
X124986900Y-74190160D01*
X125017380Y-74157140D01*
X124420480Y-74157140D01*
X124440800Y-74375580D01*
X124496680Y-74995340D01*
X124534780Y-75554140D01*
X124552560Y-76006260D01*
X124552560Y-76085000D01*
X125738740Y-76085000D01*
X125914000Y-76085000D01*
X126320400Y-76087540D01*
X126589640Y-76095160D01*
X126744580Y-76118020D01*
X126820780Y-76158660D01*
X126843640Y-76222160D01*
X126843640Y-76252640D01*
X126833480Y-76328840D01*
X126782680Y-76377100D01*
X126660760Y-76405040D01*
X126439780Y-76417740D01*
X126089260Y-76422820D01*
X125914000Y-76422820D01*
X125505060Y-76420280D01*
X125238360Y-76412660D01*
X125080880Y-76389800D01*
X125007220Y-76349160D01*
X124984360Y-76285660D01*
X124981820Y-76252640D01*
X124991980Y-76178980D01*
X125045320Y-76130720D01*
X125167240Y-76102780D01*
X125388220Y-76090080D01*
X125738740Y-76085000D01*
X124552560Y-76085000D01*
X124542400Y-76504100D01*
X124509380Y-77029880D01*
X124504300Y-77101000D01*
X126683620Y-77101000D01*
X126808080Y-77174660D01*
X126871580Y-77367700D01*
X126869040Y-77639480D01*
X126833480Y-77827440D01*
X126665840Y-78157640D01*
X126378820Y-78365920D01*
X125982580Y-78452280D01*
X125896220Y-78454820D01*
X125609200Y-78437040D01*
X125411080Y-78358300D01*
X125225660Y-78203360D01*
X125068180Y-78020480D01*
X124999600Y-77840140D01*
X124997060Y-77586140D01*
X124999600Y-77548040D01*
X125037700Y-77271180D01*
X125113900Y-77139100D01*
X125159620Y-77118780D01*
X125248520Y-77136560D01*
X125263760Y-77268640D01*
X125256140Y-77349920D01*
X125263760Y-77720760D01*
X125398380Y-77995080D01*
X125639680Y-78152560D01*
X125972420Y-78177960D01*
X126068940Y-78162720D01*
X126373740Y-78030640D01*
X126543920Y-77802040D01*
X126579480Y-77469300D01*
X126576940Y-77443900D01*
X126569320Y-77217840D01*
X126612500Y-77118780D01*
X126683620Y-77101000D01*
X124504300Y-77101000D01*
X124461120Y-77603920D01*
X124402700Y-78160180D01*
X124387460Y-78284640D01*
X124308720Y-78906940D01*
X124245220Y-79379380D01*
X124196960Y-79724820D01*
X124153780Y-79961040D01*
X124118220Y-80110900D01*
X124080120Y-80192180D01*
X124039480Y-80225200D01*
X123991220Y-80232820D01*
X123988680Y-80232820D01*
X123907400Y-80192180D01*
X123899780Y-80039780D01*
X123909940Y-79958500D01*
X124014080Y-79221900D01*
X124087740Y-78358300D01*
X124133460Y-77395640D01*
X124151240Y-76377100D01*
X124141080Y-75333160D01*
X124102980Y-74304460D01*
X124036940Y-73321480D01*
X123942960Y-72427400D01*
X123912480Y-72211500D01*
X123871840Y-71985440D01*
X123803260Y-71881300D01*
X123655940Y-71853360D01*
X123534020Y-71850820D01*
X123203820Y-71850820D01*
X123203820Y-71850820D01*
X123203820Y-71850820D01*
G37*
X123203820Y-71850820D02*
X123203820Y-76085000D01*
X123203820Y-80316640D01*
X127438000Y-80316640D01*
X131669640Y-80316640D01*
X131669640Y-76085000D01*
X131669640Y-71850820D01*
X127872340Y-71850820D01*
X124072500Y-71850820D01*
X124151240Y-72211500D01*
X124224900Y-72612820D01*
X124301100Y-73138600D01*
X124372220Y-73712640D01*
X125063100Y-73712640D01*
X125192640Y-73743120D01*
X125433940Y-73821860D01*
X125743820Y-73936160D01*
X126076560Y-74063160D01*
X126391520Y-74192700D01*
X126485500Y-74235880D01*
X126706480Y-74360340D01*
X126830940Y-74487340D01*
X126843640Y-74530520D01*
X126797920Y-74621960D01*
X126696320Y-74604180D01*
X126561700Y-74553380D01*
X126312780Y-74459400D01*
X126000360Y-74345100D01*
X125672700Y-74223180D01*
X125370440Y-74113960D01*
X125146920Y-74032680D01*
X125088500Y-74009820D01*
X125004680Y-73923460D01*
X124986900Y-73796460D01*
X125042780Y-73717720D01*
X125063100Y-73712640D01*
X124372220Y-73712640D01*
X124374760Y-73740580D01*
X124420480Y-74157140D01*
X125017380Y-74157140D01*
X125098660Y-74162220D01*
X125256140Y-74207940D01*
X125512680Y-74301920D01*
X125896220Y-74446700D01*
X126041000Y-74502580D01*
X126419460Y-74654980D01*
X126673460Y-74784520D01*
X126800460Y-74898820D01*
X126795380Y-75013120D01*
X126648060Y-75137580D01*
X126358500Y-75284900D01*
X125916540Y-75467780D01*
X125510140Y-75622720D01*
X125230740Y-75726860D01*
X125070720Y-75770040D01*
X124999600Y-75754800D01*
X124981820Y-75688760D01*
X124981820Y-75668440D01*
X125025000Y-75574460D01*
X125172320Y-75470320D01*
X125441560Y-75345860D01*
X125718420Y-75236640D01*
X126457560Y-74957240D01*
X125995280Y-74792140D01*
X125555860Y-74627040D01*
X125256140Y-74497500D01*
X125075800Y-74393360D01*
X124994520Y-74301920D01*
X124981820Y-74251120D01*
X124986900Y-74190160D01*
X125017380Y-74157140D01*
X124420480Y-74157140D01*
X124440800Y-74375580D01*
X124496680Y-74995340D01*
X124534780Y-75554140D01*
X124552560Y-76006260D01*
X124552560Y-76085000D01*
X125738740Y-76085000D01*
X125914000Y-76085000D01*
X126320400Y-76087540D01*
X126589640Y-76095160D01*
X126744580Y-76118020D01*
X126820780Y-76158660D01*
X126843640Y-76222160D01*
X126843640Y-76252640D01*
X126833480Y-76328840D01*
X126782680Y-76377100D01*
X126660760Y-76405040D01*
X126439780Y-76417740D01*
X126089260Y-76422820D01*
X125914000Y-76422820D01*
X125505060Y-76420280D01*
X125238360Y-76412660D01*
X125080880Y-76389800D01*
X125007220Y-76349160D01*
X124984360Y-76285660D01*
X124981820Y-76252640D01*
X124991980Y-76178980D01*
X125045320Y-76130720D01*
X125167240Y-76102780D01*
X125388220Y-76090080D01*
X125738740Y-76085000D01*
X124552560Y-76085000D01*
X124542400Y-76504100D01*
X124509380Y-77029880D01*
X124504300Y-77101000D01*
X126683620Y-77101000D01*
X126808080Y-77174660D01*
X126871580Y-77367700D01*
X126869040Y-77639480D01*
X126833480Y-77827440D01*
X126665840Y-78157640D01*
X126378820Y-78365920D01*
X125982580Y-78452280D01*
X125896220Y-78454820D01*
X125609200Y-78437040D01*
X125411080Y-78358300D01*
X125225660Y-78203360D01*
X125068180Y-78020480D01*
X124999600Y-77840140D01*
X124997060Y-77586140D01*
X124999600Y-77548040D01*
X125037700Y-77271180D01*
X125113900Y-77139100D01*
X125159620Y-77118780D01*
X125248520Y-77136560D01*
X125263760Y-77268640D01*
X125256140Y-77349920D01*
X125263760Y-77720760D01*
X125398380Y-77995080D01*
X125639680Y-78152560D01*
X125972420Y-78177960D01*
X126068940Y-78162720D01*
X126373740Y-78030640D01*
X126543920Y-77802040D01*
X126579480Y-77469300D01*
X126576940Y-77443900D01*
X126569320Y-77217840D01*
X126612500Y-77118780D01*
X126683620Y-77101000D01*
X124504300Y-77101000D01*
X124461120Y-77603920D01*
X124402700Y-78160180D01*
X124387460Y-78284640D01*
X124308720Y-78906940D01*
X124245220Y-79379380D01*
X124196960Y-79724820D01*
X124153780Y-79961040D01*
X124118220Y-80110900D01*
X124080120Y-80192180D01*
X124039480Y-80225200D01*
X123991220Y-80232820D01*
X123988680Y-80232820D01*
X123907400Y-80192180D01*
X123899780Y-80039780D01*
X123909940Y-79958500D01*
X124014080Y-79221900D01*
X124087740Y-78358300D01*
X124133460Y-77395640D01*
X124151240Y-76377100D01*
X124141080Y-75333160D01*
X124102980Y-74304460D01*
X124036940Y-73321480D01*
X123942960Y-72427400D01*
X123912480Y-72211500D01*
X123871840Y-71985440D01*
X123803260Y-71881300D01*
X123655940Y-71853360D01*
X123534020Y-71850820D01*
X123203820Y-71850820D01*
X123203820Y-71850820D01*
D12*
%TO.C,J2*%
X136070619Y-121372500D02*
X133410619Y-121372500D01*
X136070619Y-73052500D02*
X136070619Y-121372500D01*
X133410619Y-73052500D02*
X133410619Y-121372500D01*
X136070619Y-73052500D02*
X133410619Y-73052500D01*
X136070619Y-71782500D02*
X136070619Y-70452500D01*
X136070619Y-70452500D02*
X134740619Y-70452500D01*
%TO.C,J1*%
X120868000Y-121415000D02*
X118208000Y-121415000D01*
X120868000Y-73095000D02*
X120868000Y-121415000D01*
X118208000Y-73095000D02*
X118208000Y-121415000D01*
X120868000Y-73095000D02*
X118208000Y-73095000D01*
X120868000Y-71825000D02*
X120868000Y-70495000D01*
X120868000Y-70495000D02*
X119538000Y-70495000D01*
%TO.C,J2*%
D13*
X135073952Y-68904880D02*
X135073952Y-69619166D01*
X135121571Y-69762023D01*
X135216809Y-69857261D01*
X135359666Y-69904880D01*
X135454904Y-69904880D01*
X134645380Y-69000119D02*
X134597761Y-68952500D01*
X134502523Y-68904880D01*
X134264428Y-68904880D01*
X134169190Y-68952500D01*
X134121571Y-69000119D01*
X134073952Y-69095357D01*
X134073952Y-69190595D01*
X134121571Y-69333452D01*
X134692999Y-69904880D01*
X134073952Y-69904880D01*
%TO.C,J1*%
X119871333Y-68947380D02*
X119871333Y-69661666D01*
X119918952Y-69804523D01*
X120014190Y-69899761D01*
X120157047Y-69947380D01*
X120252285Y-69947380D01*
X118871333Y-69947380D02*
X119442761Y-69947380D01*
X119157047Y-69947380D02*
X119157047Y-68947380D01*
X119252285Y-69090238D01*
X119347523Y-69185476D01*
X119442761Y-69233095D01*
%TD*%
M02*
